<?xml version="1.0" encoding="UTF-8" standalone="no"?><!DOCTYPE svg PUBLIC "-//W3C//DTD SVG 1.1//EN" "http://www.w3.org/Graphics/SVG/1.1/DTD/svg11.dtd"><svg width="100%" height="100%" viewBox="0 0 3145 942" version="1.1" xmlns="http://www.w3.org/2000/svg" xmlns:xlink="http://www.w3.org/1999/xlink" xml:space="preserve" xmlns:serif="http://www.serif.com/" style="fill-rule:evenodd;clip-rule:evenodd;stroke-linecap:round;stroke-linejoin:round;stroke-miterlimit:1.5;"><text x="471.932px" y="576.878px" style="font-family:'NewtonHowardFont-Regular', 'Newton Howard Font';font-size:436.955px;">Whi Ds</text><path d="M325.732,137.977c9.42,-1.214 41.297,-2.065 54.924,1.239c13.628,3.304 27.669,9.085 31.799,16.931c4.129,7.847 5.781,18.997 -0,28.082c-5.782,9.085 -5.782,14.041 -18.997,26.843c-13.215,12.802 -19.409,20.235 -25.603,23.952c-6.195,3.716 -11.563,7.846 -14.454,9.911c-2.891,2.065 -8.26,4.129 -1.239,6.607c7.02,2.478 3.717,0.413 11.976,1.652c8.259,1.239 4.129,9.498 3.717,11.976c-0.413,2.478 -6.608,18.17 -12.802,28.495c-6.195,10.324 -10.324,24.364 -11.563,30.146c-1.239,5.781 -3.304,9.498 -4.543,16.519c-1.239,7.02 -2.065,7.433 -6.607,9.085c-4.543,1.652 -15.28,1.239 -15.28,2.065c-0,0.826 -1.322,43.421 -1.322,46.381c0,2.96 11.207,18.818 12.898,19.664c1.692,0.845 49.688,68.294 50.322,71.889c0.635,3.594 1.831,4.863 0.985,10.149c-0.846,5.286 -13.532,42.499 -13.955,44.613c-0.423,2.114 -0.423,13.955 6.343,4.652c6.766,-9.304 20.51,-45.037 24.527,-46.517c4.017,-1.48 7.189,1.269 10.995,2.749c3.806,1.48 69.14,27.275 71.466,29.178c2.325,1.903 -177.163,406.014 -177.163,406.014c0,0 -107.939,-192.635 -126.006,-217.585c-18.067,-24.949 -110.124,-154.001 -117.007,-161.744c-6.882,-7.743 -46.066,-48.574 -48.837,-49.497c-2.772,-0.924 -5.428,-6.813 -5.428,-6.813c0,-0 41.34,-21.825 42.379,-21.825c1.039,0 4.85,-3.464 6.697,0.231c1.848,3.695 2.166,17.242 1.559,25.635c-0.483,6.682 -3.551,22.604 -0.202,22.951c3.349,0.346 4.888,-8.193 7.593,-17.985c3.228,-11.692 7.645,-27.781 21.155,-56.698c13.51,-28.916 21.709,-49.297 21.709,-49.297c-0,0 5.658,-13.51 8.198,-10.854c2.541,2.656 4.273,3.695 7.044,10.854c2.772,7.159 11.201,22.633 15.82,26.213c4.619,3.579 27.15,20.438 27.496,20.785c0.347,0.346 -27.251,24.48 -27.136,26.443c0.116,1.963 -0.693,1.963 1.039,3.811c1.732,1.847 72.171,109.122 74.25,110.046c2.078,0.923 4.157,1.501 4.388,-5.89c0.231,-7.39 0.577,-35.334 0.461,-39.722c-0.115,-4.388 -20.9,-3.234 -22.517,-4.504c-1.616,-1.27 19.862,-51.616 20.208,-51.616c0.346,-0 47.198,45.265 47.198,45.265l-12.818,2.079l41.01,106.852l-3.25,-193.573c0,0 -1.732,-2.655 -4.041,-1.154c-2.31,1.501 -26.365,14.103 -27.474,15.027c-1.108,0.924 -9.515,3.049 -17.459,3.511c-7.945,0.462 -16.628,-0.647 -18.384,-0.647c-1.755,0 18.384,-9.053 27.806,-18.568c9.423,-9.515 14.504,-12.3 16.444,-17.737c1.94,-5.436 0.924,-11.81 -9.33,-5.159c-10.254,6.651 -22.472,15.868 -22.472,15.868c0,-0 -9.412,7.22 -13.786,8.584c-11.572,3.609 -8.6,3.79 -28.896,3.524c-0.681,-0.009 -7.4,0 -7.048,-1.409c0.352,-1.41 10.796,-9.095 13.039,-12.334c4.087,-5.906 6.268,-12.868 5.99,-17.62c-0.235,-4.024 -0.592,-7.33 -2.466,-10.22c-4.738,-7.301 -18.677,-1.409 -23.611,-1.409c-4.934,-0 -3.391,-2.363 -2.966,-3.262c0.426,-0.898 32.438,-8.534 36.272,-12.594c3.834,-4.059 2.707,-6.315 0.677,-7.894c-2.03,-1.578 -59.316,-0.451 -60.218,-0.225c-0.902,0.225 -5.864,-1.128 -1.804,-4.06c4.06,-2.932 26.839,-1.578 28.192,-4.51c1.353,-2.932 4.285,-44.881 3.608,-44.881c-0.676,-0 -29.094,-0.677 -29.094,-0.677l5.188,-48.264c-0,-0 9.164,-33.067 -4.285,-49.618c-7.21,-8.871 -23.681,-9.246 -23.681,-9.246c-0,-0 -31.124,-3.158 -49.843,7.893c-18.72,11.051 -62.473,-0.902 -69.014,2.03c-6.54,2.932 -13.08,-4.285 3.609,-8.345c16.689,-4.059 43.077,4.06 55.03,-4.51c11.953,-8.571 73.767,-21.913 102.504,-32.719c18.127,-6.815 34.749,-13.105 45.67,-17.769c12.635,-5.397 23.422,-9.847 34.999,-15.52c27.207,-13.33 47.425,-18.314 75.417,-21.923Z" style="stroke:#000;stroke-width:3.13px;"/><path d="M145.168,1.562l20.497,1.132l33.312,3.839l93.381,4.878l11.743,5.866l21.939,40.232l23.523,67.131l-36.473,0.793l-50.481,2.643l-51.274,10.572l-48.895,14.537c0,-0 -66.739,25.108 -72.818,27.222c-6.079,2.115 -6.872,-3.171 -3.965,-6.079c2.908,-2.907 70.561,-26.313 70.561,-26.313c0,-0 9.61,-4.584 0.271,-5.667c-5.513,-0.639 -64.224,12.158 -64.224,12.158c-0,0 -4.758,2.379 -2.643,-1.85c2.114,-4.229 65.017,-24.844 65.017,-24.844c-0,0 6.18,-3.203 1.057,-3.964c-2.234,-0.332 -58.42,10.315 -61.846,10.043c-15.344,-1.218 6.16,-8.688 6.16,-8.688l53.307,-13.777l-5.55,-43.187l-13.743,-40.596c-0,0 -1.836,-9.574 -0.356,-16.551c1.415,-6.67 11.5,-9.53 11.5,-9.53Z" style="stroke:#000;stroke-width:3.13px;"/></svg>