<?xml version="1.0" encoding="UTF-8" standalone="no"?><!DOCTYPE svg PUBLIC "-//W3C//DTD SVG 1.1//EN" "http://www.w3.org/Graphics/SVG/1.1/DTD/svg11.dtd"><svg width="100%" height="100%" viewBox="0 0 4267 2500" version="1.1" xmlns="http://www.w3.org/2000/svg" xmlns:xlink="http://www.w3.org/1999/xlink" xml:space="preserve" xmlns:serif="http://www.serif.com/" style="fill-rule:evenodd;clip-rule:evenodd;stroke-linecap:round;stroke-linejoin:round;stroke-miterlimit:1.5;"><text x="634.178px" y="2323.13px" style="font-family:'NewtonHowardFont-Regular', 'Newton Howard Font';font-size:471.871px;">Whi Ds</text><g id="Capa1"><path d="M2194.54,287.306c19.271,-2.485 84.48,-4.224 112.358,2.534c27.879,6.759 56.602,18.586 65.05,34.637c8.448,16.051 11.827,38.861 0,57.447c-11.827,18.585 -11.827,28.723 -38.861,54.912c-27.033,26.189 -39.706,41.395 -52.378,48.998c-12.672,7.604 -23.654,16.052 -29.568,20.276c-5.913,4.224 -16.896,8.448 -2.534,13.516c14.362,5.069 7.603,0.845 24.499,3.38c16.896,2.534 8.448,19.43 7.603,24.499c-0.844,5.069 -13.516,37.171 -26.188,58.291c-12.672,21.12 -21.121,49.844 -23.655,61.671c-2.534,11.827 -6.758,19.43 -9.293,33.792c-2.534,14.362 -4.224,15.206 -13.517,18.586c-9.292,3.379 -31.257,2.534 -31.257,4.224c-0,1.689 -2.704,88.827 -2.704,94.882c0,6.056 22.925,38.496 26.385,40.226c3.461,1.73 101.647,139.71 102.944,147.064c1.298,7.353 3.745,9.948 2.015,20.761c-1.73,10.814 -27.683,86.941 -28.548,91.266c-0.865,4.326 -0.865,28.548 12.976,9.516c13.842,-19.032 41.957,-92.131 50.175,-95.159c8.218,-3.027 14.706,2.596 22.492,5.623c7.786,3.028 141.44,55.798 146.198,59.691c4.758,3.893 -362.422,830.583 -362.422,830.583c0,0 -220.811,-394.073 -257.771,-445.113c-36.961,-51.04 -225.281,-315.041 -239.361,-330.881c-14.08,-15.84 -94.238,-99.367 -99.908,-101.257c-5.669,-1.89 -11.102,-13.937 -11.102,-13.937c-0,-0 84.568,-44.647 86.694,-44.647c2.126,0 9.921,-7.086 13.701,0.473c3.78,7.559 4.431,35.271 3.189,52.442c-0.988,13.667 -7.264,46.24 -0.413,46.949c6.85,0.709 9.999,-16.76 15.531,-36.792c6.605,-23.918 15.64,-56.832 43.278,-115.986c27.638,-59.154 44.41,-100.847 44.41,-100.847c-0,-0 11.575,-27.638 16.772,-22.205c5.197,5.433 8.74,7.559 14.41,22.205c5.669,14.646 22.913,46.3 32.362,53.623c9.449,7.323 55.541,41.811 56.249,42.52c0.709,0.709 -55.749,50.079 -55.512,54.095c0.236,4.016 -1.418,4.016 2.126,7.795c3.543,3.78 147.639,223.232 151.891,225.122c4.253,1.89 8.505,3.071 8.977,-12.048c0.472,-15.118 1.181,-72.284 0.945,-81.261c-0.236,-8.976 -42.757,-6.614 -46.064,-9.212c-3.307,-2.599 40.631,-105.592 41.339,-105.592c0.709,-0 96.553,92.599 96.553,92.599l-26.22,4.252l83.892,218.589l-6.647,-395.993c-0,0 -3.544,-5.433 -8.268,-2.362c-4.725,3.071 -53.935,28.852 -56.202,30.742c-2.268,1.89 -19.465,6.236 -35.717,7.181c-16.253,0.945 -34.017,-1.323 -37.607,-1.323c-3.591,0 37.607,-18.52 56.882,-37.984c19.276,-19.465 29.67,-25.163 33.639,-36.284c3.968,-11.122 1.89,-24.161 -19.087,-10.555c-20.977,13.607 -45.97,32.461 -45.97,32.461c-0,0 -19.255,14.771 -28.202,17.561c-23.674,7.382 -17.593,7.753 -59.113,7.209c-1.394,-0.018 -15.139,0 -14.418,-2.883c0.721,-2.884 22.086,-18.604 26.673,-25.232c8.362,-12.082 12.824,-26.323 12.255,-36.045c-0.481,-8.232 -1.211,-14.994 -5.046,-20.906c-9.691,-14.936 -38.208,-2.883 -48.3,-2.883c-10.093,-0 -6.938,-4.834 -6.067,-6.672c0.871,-1.839 66.358,-17.46 74.201,-25.764c7.844,-8.305 5.537,-12.919 1.384,-16.148c-4.152,-3.23 -121.341,-0.923 -123.187,-0.462c-1.845,0.462 -11.995,-2.307 -3.69,-8.305c8.304,-5.997 54.903,-3.229 57.671,-9.227c2.769,-5.998 8.766,-91.814 7.382,-91.814c-1.384,0 -59.517,-1.384 -59.517,-1.384l10.612,-98.734c-0,0 18.748,-67.645 -8.767,-101.502c-14.748,-18.149 -48.444,-18.917 -48.444,-18.917c0,0 -63.669,-6.459 -101.964,16.149c-38.294,22.607 -127.8,-1.846 -141.18,4.152c-13.38,5.998 -26.76,-8.766 7.382,-17.071c34.142,-8.305 88.122,8.305 112.575,-9.227c24.453,-17.533 150.905,-44.827 209.693,-66.932c37.081,-13.943 71.085,-26.809 93.427,-36.351c25.847,-11.04 47.914,-20.145 71.597,-31.749c55.659,-27.27 97.018,-37.466 154.282,-44.848Z" style="stroke:#000;stroke-width:4.17px;"/><path d="M1825.16,8.242l41.93,2.314l68.146,7.855l191.031,9.979l24.024,11.998l44.88,82.304l48.12,137.331l-74.613,1.622l-103.269,5.407l-104.891,21.627l-100.024,29.737c-0,-0 -136.53,51.364 -148.965,55.689c-12.436,4.326 -14.058,-6.488 -8.11,-12.435c5.947,-5.948 144.347,-53.83 144.347,-53.83c-0,0 19.659,-9.377 0.553,-11.592c-11.278,-1.307 -131.383,24.871 -131.383,24.871c-0,0 -9.733,4.866 -5.407,-3.784c4.325,-8.651 133.006,-50.824 133.006,-50.824c-0,0 12.643,-6.553 2.162,-8.11c-4.569,-0.679 -119.511,21.102 -126.517,20.546c-31.39,-2.492 12.599,-17.773 12.599,-17.773l109.052,-28.185l-11.354,-88.346l-28.115,-83.047c-0,-0 -3.754,-19.585 -0.727,-33.859c2.895,-13.646 23.525,-19.495 23.525,-19.495Z" style="stroke:#000;stroke-width:4.17px;"/></g></svg>