<?xml version="1.0" encoding="UTF-8" standalone="no"?><!DOCTYPE svg PUBLIC "-//W3C//DTD SVG 1.1//EN" "http://www.w3.org/Graphics/SVG/1.1/DTD/svg11.dtd"><svg width="100%" height="100%" viewBox="0 0 1024 1024" version="1.1" xmlns="http://www.w3.org/2000/svg" xmlns:xlink="http://www.w3.org/1999/xlink" xml:space="preserve" xmlns:serif="http://www.serif.com/" style="fill-rule:evenodd;clip-rule:evenodd;stroke-linecap:round;stroke-linejoin:round;stroke-miterlimit:1.5;"><g id="Capa1"><path d="M430.226,0.763l22.33,1.232c14.161,2.429 28.287,4.894 44.2,5.571l93.822,3.926c6.62,0.492 10.04,2.97 12.794,6.39l19.842,44.712l29.684,72.252l-39.734,0.864c-16.738,-0.103 -34.007,0.148 -54.995,2.879c-28.073,3.839 -41.301,7.678 -55.859,11.518l-53.267,15.836c0,-0 -72.707,27.353 -79.33,29.657c-6.622,2.303 -7.486,-3.456 -4.318,-6.623c3.167,-3.167 76.87,-28.666 76.87,-28.666c0,-0 10.822,-6.758 0.648,-7.938c-6.007,-0.696 -65.733,13.951 -65.733,13.951c-0,-0 -14.357,4.532 -12.054,-0.075c2.304,-4.607 75.418,-27.948 75.418,-27.948c0,0 6.733,-3.489 1.152,-4.319c-2.433,-0.361 -64.879,11.238 -68.611,10.942c-16.716,-1.327 7.769,-7.701 7.769,-7.701l58.251,-16.773l-6.047,-47.048l-14.972,-44.226c-0,-0 -2,-10.43 -0.387,-18.032c1.541,-7.266 12.527,-10.381 12.527,-10.381Z" style="stroke:#000;stroke-width:1px;"/><path d="M626.937,149.375c10.262,-1.323 44.989,-2.249 59.835,1.35c14.847,3.599 30.143,9.898 34.642,18.445c4.499,8.548 6.298,20.695 -0,30.593c-6.299,9.898 -6.299,15.296 -20.695,29.243c-14.397,13.947 -21.145,22.045 -27.893,26.094c-6.749,4.049 -12.597,8.548 -15.747,10.797c-3.149,2.25 -8.997,4.499 -1.349,7.198c7.648,2.7 4.049,0.45 13.047,1.8c8.997,1.35 4.498,10.347 4.049,13.047c-0.45,2.699 -7.199,19.795 -13.947,31.042c-6.748,11.248 -11.247,26.544 -12.597,32.842c-1.35,6.299 -3.599,10.348 -4.949,17.996c-1.35,7.648 -2.249,8.098 -7.198,9.898c-4.949,1.799 -16.646,1.349 -16.646,2.249c-0,0.9 -1.44,47.304 -1.44,50.529c0,3.225 12.209,20.5 14.051,21.422c1.843,0.921 54.131,74.401 54.822,78.317c0.691,3.916 1.994,5.298 1.073,11.056c-0.922,5.759 -14.742,46.3 -15.203,48.603c-0.461,2.304 -0.461,15.203 6.91,5.068c7.371,-10.135 22.344,-49.064 26.72,-50.676c4.377,-1.612 7.832,1.382 11.978,2.994c4.147,1.613 75.323,29.715 77.857,31.788c2.533,2.073 -193.004,442.319 -193.004,442.319c-0,-0 -117.591,-209.86 -137.274,-237.041c-19.683,-27.181 -119.971,-167.772 -127.469,-176.207c-7.498,-8.436 -50.186,-52.917 -53.205,-53.924c-3.019,-1.006 -5.913,-7.422 -5.913,-7.422c0,0 45.036,-23.776 46.168,-23.776c1.133,0 5.284,-3.774 7.297,0.252c2.013,4.025 2.359,18.783 1.698,27.927c-0.526,7.279 -3.868,24.625 -0.22,25.003c3.648,0.377 5.325,-8.926 8.271,-19.593c3.518,-12.738 8.329,-30.266 23.047,-61.768c14.719,-31.501 23.65,-53.705 23.65,-53.705c0,0 6.165,-14.718 8.932,-11.825c2.768,2.893 4.655,4.026 7.674,11.825c3.019,7.8 12.202,24.657 17.234,28.556c5.032,3.9 29.578,22.267 29.955,22.644c0.377,0.378 -29.688,26.669 -29.563,28.808c0.126,2.139 -0.754,2.139 1.133,4.151c1.887,2.013 78.624,118.88 80.888,119.886c2.264,1.007 4.529,1.636 4.78,-6.415c0.252,-8.051 0.629,-38.495 0.504,-43.275c-0.126,-4.78 -22.77,-3.522 -24.531,-4.906c-1.761,-1.384 21.637,-56.232 22.015,-56.232c0.377,-0 51.418,49.313 51.418,49.313l-13.964,2.264l44.677,116.407l-3.54,-210.881c-0,-0 -1.887,-2.894 -4.403,-1.258c-2.516,1.635 -28.723,15.364 -29.93,16.371c-1.208,1.006 -10.366,3.321 -19.021,3.824c-8.655,0.503 -18.115,-0.704 -20.027,-0.704c-1.912,-0 20.027,-9.863 30.292,-20.229c10.265,-10.366 15.8,-13.4 17.914,-19.322c2.113,-5.923 1.006,-12.867 -10.165,-5.621c-11.171,7.246 -24.481,17.287 -24.481,17.287c0,-0 -10.254,7.866 -15.018,9.352c-12.608,3.931 -9.369,4.128 -31.48,3.839c-0.743,-0.01 -8.062,-0 -7.679,-1.536c0.384,-1.535 11.762,-9.907 14.205,-13.437c4.453,-6.434 6.829,-14.018 6.526,-19.195c-0.256,-4.384 -0.645,-7.985 -2.687,-11.133c-5.161,-7.955 -20.347,-1.536 -25.722,-1.536c-5.374,0 -3.694,-2.574 -3.231,-3.553c0.464,-0.979 35.339,-9.298 39.516,-13.72c4.177,-4.423 2.948,-6.88 0.737,-8.6c-2.212,-1.72 -64.619,-0.491 -65.602,-0.246c-0.983,0.246 -6.388,-1.228 -1.966,-4.422c4.423,-3.194 29.238,-1.72 30.713,-4.914c1.474,-3.194 4.668,-48.895 3.931,-48.895c-0.737,0 -31.695,-0.737 -31.695,-0.737l5.651,-52.58c-0,0 9.984,-36.023 -4.669,-54.054c-7.854,-9.664 -25.798,-10.073 -25.798,-10.073c-0,-0 -33.907,-3.44 -54.3,8.599c-20.393,12.039 -68.059,-0.983 -75.184,2.211c-7.126,3.195 -14.251,-4.668 3.931,-9.09c18.182,-4.423 46.929,4.422 59.951,-4.914c13.022,-9.337 80.363,-23.873 111.67,-35.644c19.747,-7.426 37.855,-14.277 49.753,-19.359c13.765,-5.879 25.516,-10.728 38.129,-16.907c29.64,-14.522 51.666,-19.953 82.161,-23.884Z" style="stroke:#000;stroke-width:1px;"/></g></svg>